<svg xmlns="http://www.w3.org/2000/svg" width="1577.271" height="458.202" viewBox="0 0 1577.271 458.202">
  <g id="Group_2" data-name="Group 2" transform="translate(-714.394 -661.524)">
    <text id="THE_POOLSHOP_MOL" data-name="THE POOLSHOP MOL" transform="translate(714.394 1028.345)" fill="#fff" font-size="153" font-family="Raleway-Black, Raleway" font-weight="800"><tspan x="0" y="0">THE POOLSHOP MOL</tspan></text>
    <path id="swimming-pool" d="M271.814,201.272h-6.97c-11.343,0-19.95-3.712-24.433-7.891-3.877-3.619-8.564-6.215-13.839-6.215h-7.1c-5.275,0-9.962,2.6-13.839,6.215-4.474,4.179-13.081,7.891-24.424,7.891s-19.95-3.712-24.433-7.891c-3.877-3.619-8.564-6.215-13.839-6.215h-7.1c-5.275,0-9.962,2.6-13.839,6.215-4.474,4.179-13.081,7.891-24.424,7.891s-19.95-3.712-24.433-7.891c-3.877-3.619-8.564-6.215-13.839-6.215H52.2c-5.275,0-9.962,2.6-13.839,6.215-4.474,4.179-13.081,7.891-24.424,7.891H6.97A7.01,7.01,0,0,0,0,208.325v14.106a7.01,7.01,0,0,0,6.97,7.053h6.97c16.823,0,31.677-5.373,41.817-14.035,10.141,8.666,24.995,14.035,41.817,14.035s31.677-5.373,41.817-14.035c10.141,8.666,24.995,14.035,41.817,14.035s31.677-5.373,41.817-14.035c10.141,8.666,24.995,14.035,41.817,14.035h6.97a7.01,7.01,0,0,0,6.97-7.053V208.325A7.01,7.01,0,0,0,271.814,201.272ZM97.574,187.166V144.848h83.635v42.318c8.329,0,13.443-2.715,14.98-4.152a37.575,37.575,0,0,1,12.9-7.966V74.318a13.94,13.94,0,1,1,27.878,0v7.053a7.01,7.01,0,0,0,6.97,7.053h13.939a7.01,7.01,0,0,0,6.97-7.053V74.318C264.844,50.981,246.087,32,223.026,32s-41.817,18.981-41.817,42.318v42.318H97.574V74.318a13.94,13.94,0,1,1,27.878,0v7.053a7.01,7.01,0,0,0,6.97,7.053h13.939a7.01,7.01,0,0,0,6.97-7.053V74.318C153.331,50.981,134.574,32,111.513,32S69.7,50.981,69.7,74.318V175.044a37.643,37.643,0,0,1,12.9,7.965C84.132,184.451,89.245,187.166,97.574,187.166Z" transform="translate(1362.802 629.524)" fill="#fff"/>
    <rect id="Rectangle_6" data-name="Rectangle 6" width="651.944" height="27.225" transform="translate(717.508 830.724)" fill="#fff"/>
    <rect id="Rectangle_7" data-name="Rectangle 7" width="1574.156" height="27.225" transform="translate(717.508 1092.501)" fill="#fff"/>
    <rect id="Rectangle_8" data-name="Rectangle 8" width="652.899" height="27.225" transform="translate(1633.682 830.724)" fill="#fff"/>
  </g>
</svg>
