<svg xmlns="http://www.w3.org/2000/svg" width="1647.138" height="623.821" viewBox="0 0 1647.138 623.821">
  <g id="Group_5" data-name="Group 5" transform="translate(-135 -248.179)">
    <g id="Group_2" data-name="Group 2" transform="translate(135 248.179)">
      <text id="THE_POOLSHOP_MOL" data-name="THE POOLSHOP MOL" transform="translate(0 381.821)" fill="#fff" font-size="159" font-family="Raleway-Black, Raleway" font-weight="800"><tspan x="0" y="0">THE POOLSHOP MOL</tspan></text>
      <path id="swimming-pool" d="M283.854,208.77h-7.278c-11.845,0-20.834-3.876-25.515-8.24-4.049-3.779-8.943-6.491-14.452-6.491h-7.415c-5.509,0-10.4,2.711-14.452,6.491-4.672,4.364-13.66,8.24-25.506,8.24s-20.834-3.876-25.515-8.24c-4.049-3.779-8.943-6.491-14.452-6.491h-7.415c-5.509,0-10.4,2.711-14.452,6.491-4.672,4.364-13.66,8.24-25.506,8.24s-20.834-3.876-25.515-8.24c-4.049-3.779-8.943-6.491-14.452-6.491H54.514c-5.509,0-10.4,2.711-14.452,6.491-4.672,4.364-13.66,8.24-25.506,8.24H7.278A7.32,7.32,0,0,0,0,216.136v14.731a7.32,7.32,0,0,0,7.278,7.365h7.278c17.568,0,33.08-5.611,43.67-14.657,10.59,9.05,26.1,14.657,43.67,14.657s33.08-5.611,43.67-14.657c10.59,9.05,26.1,14.657,43.67,14.657s33.08-5.611,43.67-14.657c10.59,9.05,26.1,14.657,43.67,14.657h7.278a7.32,7.32,0,0,0,7.278-7.365V216.136A7.32,7.32,0,0,0,283.854,208.77ZM101.9,194.039V149.847h87.34v44.193c8.7,0,14.038-2.836,15.644-4.336a39.24,39.24,0,0,1,13.469-8.318V76.193a14.558,14.558,0,1,1,29.113,0v7.365a7.32,7.32,0,0,0,7.278,7.365H269.3a7.32,7.32,0,0,0,7.278-7.365V76.193c0-24.37-19.588-44.193-43.67-44.193s-43.67,19.822-43.67,44.193v44.193H101.9V76.193a14.558,14.558,0,1,1,29.113,0v7.365a7.32,7.32,0,0,0,7.278,7.365h14.557a7.32,7.32,0,0,0,7.278-7.365V76.193c0-24.37-19.588-44.193-43.67-44.193s-43.67,19.822-43.67,44.193V181.38A39.31,39.31,0,0,1,86.252,189.7C87.858,191.2,93.2,194.039,101.9,194.039Z" transform="translate(677.13 -32)" fill="#fff"/>
      <rect id="Rectangle_6" data-name="Rectangle 6" width="680.822" height="28.431" transform="translate(3.252 176.695)" fill="#fff"/>
      <rect id="Rectangle_7" data-name="Rectangle 7" width="1643.885" height="28.431" transform="translate(3.252 450.068)" fill="#fff"/>
      <rect id="Rectangle_8" data-name="Rectangle 8" width="681.82" height="28.431" transform="translate(960.009 176.695)" fill="#fff"/>
    </g>
    <text id="Alles_voor_uw_zwembad" data-name="Alles voor uw zwembad" transform="translate(420 847)" fill="#fff" font-size="99" font-family="Quicksand"><tspan x="0" y="0">Alles voor uw zwembad</tspan></text>
  </g>
</svg>
